<svg width="44" height="44" viewBox="0 0 44 44" fill="none" xmlns="http://www.w3.org/2000/svg">
<path fill-rule="evenodd" clip-rule="evenodd" d="M39.6557 0H10.0289V9.29495H26.5966C28.6431 9.29495 31.2742 8.52848 33.3212 6.42023L39.6557 0ZM10.0503 14.1112H25.4482L19.3088 20.2437C17.5544 21.9682 15.3131 23.5016 11.9995 23.5016H10.0506L10.0503 14.1112ZM28.9368 32.5736V17.5294L22.505 23.9494C21.433 25.0991 19.7761 26.4409 19.7761 29.5075V32.5736H28.9368ZM33.8649 32.6091V15.9358C33.8649 14.2111 33.8649 12.6779 35.7164 10.7615L42.9845 3.38317V32.6093H33.8649V32.6091ZM40.0664 35.4585C38.4384 35.4585 37.2071 36.1304 37.119 37.7978H38.6734C38.7192 37.1929 39.2465 36.7096 40.0048 36.7096C40.706 36.7096 41.2747 36.8217 41.2592 37.6636C41.2481 38.258 40.5124 38.3987 39.2912 38.5778C38.237 38.7192 36.8586 39.2943 36.4824 40.3506V38.5177C36.4824 36.7514 36.1194 35.5904 34.0005 35.5786C33.3299 35.5749 32.5746 35.8867 32.173 36.2383H32.1312L31.8875 35.7718H30.1881V40.1866C29.9797 39.1958 29.0306 38.846 28.002 38.6145C26.8652 38.3519 25.6103 38.2555 25.5967 37.5522C25.5824 36.8208 26.4023 36.7938 26.8515 36.7938C27.5671 36.7938 28.1165 37.1563 28.3101 37.8556H29.8636C29.7094 36.1032 28.4088 35.4349 26.9075 35.4349C25.3498 35.4349 23.8771 36.198 23.8964 37.7493C23.9119 39.0049 24.9009 39.5251 26.0517 39.7732C27.4832 40.0767 28.311 40.284 28.311 40.877C28.311 41.5669 27.5814 41.8598 27.0057 41.8598C26.2199 41.8598 25.4846 41.3726 25.1594 40.5874H23.7004C23.6854 39.2851 22.6291 38.8746 21.4727 38.6143C20.3359 38.3516 19.0808 38.2553 19.0672 37.552C19.0529 36.8205 19.8729 36.7936 20.322 36.7936C21.0378 36.7936 21.5867 37.156 21.7808 37.8554H23.3343C23.1801 36.103 21.8793 35.4347 20.3782 35.4347C18.8204 35.4347 17.3476 36.1977 17.3668 37.7491C17.3823 39.0047 18.3714 39.5249 19.5221 39.773C20.9534 40.0764 21.7815 40.2837 21.7815 40.8768C21.7815 41.5667 21.0519 41.8596 20.4764 41.8596C19.6906 41.8596 18.9553 41.3723 18.6292 40.5833H17.1011C17.1015 40.5814 17.1022 40.5797 17.1029 40.578H15.3366C15.1302 41.0728 14.4916 41.6223 13.6917 41.6223C12.583 41.6223 11.9655 41.0566 11.9095 39.8145H16.9979C17.1382 37.6207 16.0916 35.5784 13.6216 35.5784C11.4184 35.5784 9.91686 37.2068 9.91686 39.3452C9.91686 39.428 9.91945 39.5092 9.92344 39.5899H8.17139C7.82126 40.5339 7.21218 41.468 5.5083 41.4625C3.52949 41.4558 2.78576 39.6628 2.78576 38.0207C2.78576 36.296 3.52949 34.4722 5.5083 34.4722C7.3097 34.4722 7.72398 35.3351 7.96554 36.1016H9.87926C9.66143 34.0881 7.89458 32.9626 5.5083 32.9626C2.77801 32.9626 0.777344 35.0955 0.777344 38.0207C0.777344 40.8634 2.63185 43.14 5.5083 43.14C7.84194 43.14 9.43115 41.8416 9.96997 40.0559C10.2442 41.8771 11.589 43.0985 13.6219 43.0985C15.1897 43.0985 16.4032 42.4436 17.0195 40.8148C17.5628 42.356 18.7706 43.0971 20.4628 43.0985C21.9655 43.0999 23.4081 42.5986 23.6619 41.103C24.2488 42.4478 25.4083 43.0971 26.9925 43.0985C28.4896 43.0999 29.9266 42.6023 30.1888 41.1201V42.9053H31.9864V39.1658C31.9864 37.7171 32.4536 37.124 33.3839 37.124C34.31 37.124 34.5877 37.7032 34.5877 38.8765V42.9055H36.4831V41.5121C36.77 42.3512 37.6543 43.0266 38.7806 43.0266C39.6646 43.0266 40.7124 42.864 41.3438 42.2153C41.3581 42.4501 41.414 42.6846 41.4843 42.9053L43.0347 42.8995V37.6068C43.034 35.8959 41.5116 35.4585 40.0664 35.4585ZM13.5902 37.056C14.5585 37.056 14.9937 37.5801 15.1761 38.5737H11.9342C11.9622 38.0221 12.3271 37.056 13.5902 37.056ZM41.2056 40.1334C41.2056 40.5609 41.1497 41.7754 39.592 41.7754C38.9462 41.7754 38.2735 41.5958 38.2735 40.8643C38.2735 40.147 38.856 39.8267 39.2818 39.6722C39.6589 39.494 40.8294 39.3236 41.2059 39.33V40.1334H41.2056Z" fill="#0C2340"/>
</svg>
