<svg width="99" height="33" viewBox="0 0 99 33" fill="none" xmlns="http://www.w3.org/2000/svg">
<g id="dassault-aviation-1 1" clip-path="url(#clip0_221_420)">
<g id="Group">
<path id="Vector" d="M94.2085 25.7516L94.4643 25.0828H24.6858L24.43 25.7516H94.2085ZM11.6393 19.0209C11.9659 18.7172 12.8593 18.6019 13.3198 19.0209C13.8354 19.4898 13.7055 20.028 13.3552 20.4201C12.8436 20.989 10.9387 22.3113 10.4429 22.6111H10.1083C9.98632 22.4535 9.26611 21.3465 9.12049 20.8237C8.96306 20.274 8.99061 19.5744 9.62031 19.0785C10.25 18.5788 10.9663 18.6019 11.6393 19.0209ZM14.6618 23.1723C15.201 22.934 15.6536 22.2805 15.4096 21.6424C15.1774 21.0313 14.4532 21.0197 13.9574 21.2004C13.0325 21.531 11.1158 22.7226 10.7892 22.9532L10.6711 23.2607C10.8876 23.5759 11.5802 24.387 12.0446 24.7368C12.5091 25.0905 13.1899 25.2942 13.8786 24.9175C14.5241 24.5792 14.8468 23.8566 14.6618 23.1723ZM8.71512 27.1354C8.38846 27.4353 7.49114 27.5544 7.02674 27.1354C6.50724 26.6703 6.63712 26.1322 6.99132 25.7439C7.50295 25.1789 9.4196 23.8642 9.91942 23.5683H10.2539C10.3799 23.722 11.1001 24.8252 11.2497 25.3442C11.4071 25.89 11.3795 26.5819 10.7459 27.0778C10.1123 27.5775 9.39205 27.5544 8.71512 27.1354ZM5.70831 22.984C5.16913 23.2223 4.71654 23.8758 4.95661 24.5139C5.19275 25.1251 5.91296 25.1366 6.41279 24.9559C7.33372 24.6292 9.2543 23.4376 9.57702 23.2031L9.69509 22.8956C9.47863 22.5804 8.78596 21.7693 8.32156 21.4195C7.85322 21.0659 7.17236 20.8621 6.48756 21.235C5.84606 21.5771 5.52334 22.2959 5.70831 22.984Z" fill="#0C2340"/>
<path id="Vector_2" d="M33.5646 18.4481C33.3442 19.5744 32.1517 21.6732 29.9714 21.6732H28.1256L30.2232 16.0149H32.0494C33.1356 16.0149 33.844 17.0451 33.5646 18.4481ZM32.1792 14.4351H28.6805L25.4336 23.0762H29.7982C32.6554 23.0762 34.8397 21.4695 35.5127 18.5865C36.0519 16.2648 34.8358 14.4466 32.1792 14.4351ZM38.5471 20.0011L41.2193 16.3071L41.1328 20.0011H38.5471ZM43.1714 23.0762L43.0258 14.4351H40.7628L34.0487 23.0762H36.3156L37.693 21.2081H41.117L41.0659 23.0762H43.1714ZM66.1436 20.0011L68.8159 16.3071L68.7293 20.0011H66.1436ZM70.7679 23.0762L70.6263 14.4351H68.3633L61.6491 23.0762H63.916L65.2935 21.2081H68.7175L68.6663 23.0762H70.7679Z" fill="#0C2340"/>
<path id="Vector_3" d="M46.5443 20.2818C46.3593 21.0583 46.5483 21.6734 48.3311 21.6734C49.6653 21.6734 50.4052 21.1813 50.5311 20.5663C50.7515 19.4631 49.3937 19.6284 47.9887 19.2094C46.8159 18.8557 45.7454 18.5598 45.9894 17.0875C46.1822 15.9228 47.6305 14.2046 50.7554 14.2046C53.5773 14.2046 54.325 15.2655 53.9 16.8454H51.9518C52.0896 16.5417 52.0148 16.1881 51.7629 15.9651C51.4481 15.7153 50.905 15.5615 50.3382 15.5615C49.4055 15.5615 48.3468 16.0689 48.213 16.707C48.0084 17.6872 49.988 17.7871 50.4563 17.8794C51.7315 18.1369 53.2112 18.4329 52.8531 20.1281C52.5304 21.6657 50.5665 23.2071 47.7368 23.2071C45.4384 23.2071 44.0452 22.2192 44.5057 20.2818H46.5443ZM56.0842 20.2818C55.8993 21.0583 56.0842 21.6734 57.871 21.6734C59.2052 21.6734 59.9411 21.1813 60.0671 20.5663C60.2914 19.4631 58.9336 19.6284 57.5286 19.2094C56.3558 18.8557 55.2853 18.5598 55.5293 17.0875C55.7222 15.9228 57.1744 14.2046 60.2953 14.2046C63.1172 14.2046 63.865 15.2655 63.4438 16.8454H61.4918C61.6217 16.5994 61.5744 16.1765 61.3029 15.9651C60.9841 15.7153 60.4449 15.5615 59.8782 15.5615C58.9415 15.5615 57.8868 16.0689 57.7529 16.707C57.5444 17.6872 59.524 17.7871 59.9923 17.8794C61.2674 18.1369 62.7472 18.4329 62.3891 20.1281C62.0664 21.6657 60.1025 23.2071 57.2728 23.2071C54.9744 23.2071 53.5773 22.2192 54.0417 20.2818H56.0842ZM80.8156 19.6707C80.3237 20.77 79.6192 23.2801 75.3215 23.2801C72.9759 23.2801 72.114 22.1308 72.3855 20.7623C72.5272 20.032 72.7004 19.5284 72.9365 18.9557L74.6839 14.4275H76.8525L75.0578 19.1018C74.8847 19.5246 74.7351 19.9513 74.6092 20.3895C74.3494 21.3043 74.9555 21.7233 75.719 21.7233C78.0253 21.7233 78.2732 20.5471 78.718 19.6092L80.7094 14.4314H82.7834L80.8156 19.6707ZM84.8063 14.4352H86.9709L84.2632 21.4812H89.2693L88.5885 23.0764H81.465L84.8063 14.4352ZM97.8332 16.0305H94.8343L92.1227 23.0764H89.9148L92.6422 16.0305H89.4307L90.0997 14.4352H98.4944L97.8332 16.0305Z" fill="#0C2340"/>
<path id="Vector_4" d="M25.1296 30.9291H24.0197L25.2044 29.3223L25.1296 30.9291ZM25.0469 28.4536L21.8984 32.4897H22.8666L23.5435 31.5941H25.0942L25.0745 32.4897H25.9797L25.9836 28.4536H25.0469ZM52.8048 30.9291H51.695L52.8796 29.3223L52.8048 30.9291ZM52.7221 28.4536L49.5737 32.4897H50.5418L51.2187 31.5941H52.7733L52.7536 32.4897H53.6588L53.6628 28.4536H52.7221Z" fill="#0C2340"/>
<path id="Vector_5" d="M33.785 32.4902H32.7578L32.9782 28.454H33.8873L33.6394 31.4831H33.6512L35.741 28.454H36.6856L33.785 32.4902ZM43.5138 28.454H44.4348L42.8566 32.4902H41.9317L43.5138 28.454ZM70.9254 28.454H71.8463L70.2682 32.4902H69.3433L70.9254 28.454ZM61.6019 29.1998H60.3032L60.5944 28.4502H64.0459L63.7586 29.1998H62.5189L61.2438 32.4902H60.3307L61.6019 29.1998Z" fill="#0C2340"/>
<path id="Vector_6" d="M81.6098 30.1491C81.48 30.914 80.87 31.8442 79.9687 31.8442C79.3036 31.8442 79.1107 31.3561 79.2052 30.7987C79.339 30.0222 79.9215 29.0958 80.8621 29.0958C81.5351 29.0997 81.7082 29.5802 81.6098 30.1491ZM80.988 28.3501C79.583 28.3501 78.5165 29.4917 78.2921 30.8025C78.0953 31.9442 78.666 32.5976 79.831 32.5976C81.2871 32.5976 82.3104 31.4214 82.5387 30.0914C82.7315 28.9536 82.1136 28.3501 80.988 28.3501Z" fill="#0C2340"/>
<path id="Vector_7" d="M89.686 28.4539H90.6266L91.2602 31.3253H91.2721L92.3622 28.4539H93.1966L91.6223 32.49H90.7132L90.0638 29.657H90.0481L88.9658 32.49H88.1118L89.686 28.4539ZM6.60122 32.49C8.64774 28.7921 13.1658 25.7247 17.1447 24.2447C16.149 20.1125 15.661 12.8821 16.3576 7.16998C13.0753 12.786 6.34147 20.6968 2.35862 24.7752C3.35827 25.3749 4.54683 26.5511 5.01123 27.5275C4.61373 27.9195 4.46811 28.0118 4.01552 28.4346C3.01587 26.8663 2.04377 26.013 0.103516 25.0827C6.17617 18.8056 12.7605 11.5482 18.597 0.546875C17.1565 9.59935 16.9598 18.5903 18.8685 25.0827C14.0317 26.5972 10.0449 29.88 8.45489 32.49H6.60122Z" fill="#0C2340"/>
</g>
</g>
<defs>
<clipPath id="clip0_221_420">
<rect width="98.3904" height="32.0469" fill="white" transform="translate(0.103516 0.546875)"/>
</clipPath>
</defs>
</svg>
