<svg width="272" height="40" viewBox="0 0 272 40" fill="none" xmlns="http://www.w3.org/2000/svg">
<path d="M19.9978 39.9956C31.0423 39.9956 39.9956 31.0423 39.9956 19.9978C39.9956 8.95333 31.0423 0 19.9978 0C8.95333 0 0 8.95333 0 19.9978C0 31.0423 8.95333 39.9956 19.9978 39.9956Z" fill="#FFD241"/>
<path d="M7.73184 25.9302H11.8904C11.1871 26.9174 10.8158 27.529 10.8158 27.529H6.5C6.91498 26.9786 7.3256 26.4456 7.73184 25.9302Z" fill="#0C2340"/>
<path d="M29.6131 25.9297H32.7713C32.5704 26.9125 32.4044 27.5285 32.4044 27.5285H29.1719C29.3291 26.9781 29.482 26.4495 29.6131 25.9297Z" fill="#0C2340"/>
<path d="M19.6838 12.3666C17.6701 10.6324 18.749 9.07293 18.749 9.07293L16.7265 7.15527C14.0444 9.99463 13.7474 15.5161 13.7168 17.1542C15.9228 14.9875 17.9584 13.4499 19.6838 12.3666Z" fill="#0C2340"/>
<path d="M30.6814 11.8161C30.3581 11.8947 30.0305 11.982 29.7072 12.0781C21.709 14.4239 15.742 20.8976 12.824 24.6762H8.72656C20.7785 9.86782 28.1478 10.5099 28.1478 10.5099C28.1478 10.5099 29.0826 10.807 30.6814 11.8161Z" fill="#0C2340"/>
<path d="M31.4818 12.4712C30.9969 12.5149 30.5077 12.6809 30.1102 12.8556C30.7086 14.2971 31.5211 17.7917 29.918 24.6761H33.002C33.6179 21.0985 34.1333 15.1358 31.4818 12.4712Z" fill="#0C2340"/>
<path d="M67.0796 18.7838C69.3773 18.6178 70.5305 16.9841 70.5305 15.062C70.5305 12.3493 68.1847 10.7637 64.4717 10.7637H52.957L53.835 13.7865V27.5639H65.3541C69.0671 27.5639 71.4129 25.9302 71.4129 22.9554C71.4129 20.2908 69.5127 18.9236 67.0796 18.7794V18.7838ZM63.8951 13.7909C65.8171 13.7909 67.014 14.1491 67.014 15.6867C67.014 17.2243 65.8215 17.5825 63.8951 17.5825H57.3296V13.7909H63.8951ZM64.6246 24.5455H57.3296V20.5136H64.6246C66.6165 20.5136 67.7872 20.8237 67.7872 22.5317C67.7872 24.2397 66.6165 24.5455 64.6246 24.5455Z" fill="white"/>
<path d="M89.3933 19.3599C89.3933 22.7191 87.5805 24.7372 84.2431 24.7372C80.9058 24.7372 79.093 22.7235 79.093 19.3599V10.7676H75.5547V19.6482C75.5547 24.6892 78.6299 28.0964 84.2431 28.0964C89.8563 28.0964 92.9316 24.6892 92.9316 19.6482V10.7676H89.3933V19.3599Z" fill="white"/>
<path d="M106.153 17.2241C103.078 16.962 100.868 16.8178 100.868 15.3763C100.868 13.8387 103.432 13.4324 105.533 13.4543C108.053 13.4805 110.154 14.0527 111.858 15.4724L113.802 12.8078C111.836 11.1522 108.914 10.2393 105.533 10.2393C100.758 10.2393 97.3074 12.1613 97.3074 15.6646C97.3074 19.1679 101.418 20.3212 105.843 20.7274C109.403 21.0638 110.993 21.4482 110.993 22.8373C110.993 24.2264 109.403 24.8772 106.262 24.8772C103.122 24.8772 100.645 23.9905 98.7446 22.0947L96.709 24.7112C99.0766 26.8954 102.257 28.0966 106.171 28.0966C111.653 28.0966 114.549 25.7946 114.549 22.4791C114.549 18.7835 111.076 17.6565 106.149 17.2241H106.153Z" fill="white"/>
<path d="M122.294 10.7676H118.756V27.5678H122.294V10.7676Z" fill="white"/>
<path d="M141.972 22.2866L131.536 10.7676H127.775V27.5678H131.204V15.4241L142.304 27.5678H145.397V10.7676H141.972V22.2866Z" fill="white"/>
<path d="M154.401 20.1855H163.653V16.9705H154.401V14.0787H166.606V10.7676H150.885V27.5678H166.829V24.3528H154.401V20.1855Z" fill="white"/>
<path d="M179.229 17.2241C176.154 16.962 173.944 16.8178 173.944 15.3763C173.944 13.8387 176.508 13.4324 178.609 13.4543C181.129 13.4805 183.231 14.0527 184.934 15.4724L186.878 12.8078C184.908 11.1522 181.99 10.2393 178.609 10.2393C173.835 10.2393 170.384 12.1613 170.384 15.6646C170.384 19.1679 174.494 20.3212 178.919 20.7274C182.479 21.0638 184.069 21.4482 184.069 22.8373C184.069 24.2264 182.479 24.8772 179.339 24.8772C176.198 24.8772 173.721 23.9905 171.821 22.0947L169.785 24.7112C172.153 26.8954 175.333 28.0966 179.247 28.0966C184.729 28.0966 187.625 25.7946 187.625 22.4791C187.625 18.7835 184.152 17.6565 179.225 17.2241H179.229Z" fill="white"/>
<path d="M199.86 17.2241C196.785 16.962 194.575 16.8178 194.575 15.3763C194.575 13.8387 197.139 13.4324 199.24 13.4543C201.76 13.4805 203.861 14.0527 205.565 15.4724L207.509 12.8078C205.539 11.1522 202.621 10.2393 199.24 10.2393C194.465 10.2393 191.014 12.1613 191.014 15.6646C191.014 19.1679 195.125 20.3212 199.55 20.7274C203.11 21.0638 204.7 21.4482 204.7 22.8373C204.7 24.2264 203.11 24.8772 199.969 24.8772C196.829 24.8772 194.352 23.9905 192.452 22.0947L190.416 24.7112C192.784 26.8954 195.964 28.0966 199.878 28.0966C205.36 28.0966 208.256 25.7946 208.256 22.4791C208.256 18.7835 204.783 17.6565 199.856 17.2241H199.86Z" fill="white"/>
<path d="M227.249 20.0549C227.249 22.9598 226.079 24.7333 223.091 24.7333C221.19 24.7333 220.063 24.1087 219.155 22.8113L216.656 25.0915C218.006 26.9655 220.037 28.0925 223.091 28.0925C228.311 28.0925 230.783 24.7814 230.783 20.3389V10.7637H227.245V20.0506L227.249 20.0549Z" fill="white"/>
<path d="M239.503 20.1855H248.755V16.9705H239.503V14.0787H251.708V10.7676H235.986V27.5678H251.93V24.3528H239.503V20.1855Z" fill="white"/>
<path d="M254.604 10.7676V14.0787H260.881V27.5678H264.419V14.0787H270.687L271.631 10.7676H254.604Z" fill="white"/>
</svg>
