<svg width="24" height="24" viewBox="0 0 24 24" fill="none" xmlns="http://www.w3.org/2000/svg">
<g id="Tegan Logo">
<path id="Vector" d="M3.26426 9.37643C2.60435 8.02705 3.40319 6.50468 3.54212 6.22789L3.57685 6.19329C3.81998 5.7435 3.64632 5.18991 3.1948 4.98231C2.74327 4.77472 2.18756 4.91311 1.97916 5.36291C1.66657 5.98569 1.59711 6.67768 1.77077 7.33507C2.04863 8.13085 2.56961 8.85744 3.26426 9.37643Z" fill="white"/>
<path id="Vector_2" d="M0 11.9366C0 14.0471 0.451521 18.9257 4.58468 18.9257C6.77282 18.9257 8.5789 17.1611 8.5789 14.9467C8.5789 13.9087 8.16212 12.8708 7.398 12.1442C7.05068 11.7636 6.59916 11.4868 6.14764 11.2792C5.52245 11.037 4.89727 10.7602 4.30682 10.4488C2.53547 9.48004 1.56296 8.30366 1.35456 6.98888C1.31983 6.78129 1.31983 6.60829 1.31983 6.4007C0.486254 8.13066 0 10.0336 0 11.9366Z" fill="white"/>
<path id="Vector_3" d="M18.6168 1.97233C18.0264 1.66094 17.297 1.59174 16.6718 1.76473C15.8383 2.00693 15.1089 2.52592 14.5879 3.25251C15.9425 2.59512 17.4707 3.3909 17.7485 3.5293H17.7833C18.2001 3.8061 18.7558 3.6677 19.0336 3.21791C19.3115 2.80271 19.1726 2.24913 18.721 1.97233C18.6516 2.00693 18.6516 1.97233 18.6168 1.97233Z" fill="white"/>
<path id="Vector_4" d="M12.6427 6.12408C12.8858 5.50129 13.1636 4.87851 13.4762 4.29032C14.3445 2.73335 15.3865 1.76457 16.5674 1.45317C16.88 1.38397 17.2273 1.34937 17.5399 1.34937C15.8033 0.484391 13.9278 0 11.9827 0C9.86407 0 4.9668 0.449791 4.9668 4.56711C4.9668 6.15868 5.9393 7.61185 7.39807 8.23464C8.4053 8.64983 9.51674 8.64983 10.4892 8.23464C10.9755 8.02704 11.3923 7.75025 11.7396 7.36966C12.1564 7.02366 12.4343 6.57387 12.6427 6.12408Z" fill="white"/>
<path id="Vector_5" d="M20.7009 14.4972C21.3608 15.8466 20.562 17.3689 20.4231 17.6457V17.6803C20.1799 18.1301 20.3189 18.6491 20.7704 18.8913C21.2219 19.1335 21.7429 18.9605 21.986 18.5453C22.2986 17.9571 22.3681 17.2305 22.1944 16.6077C21.9513 15.7428 21.4303 15.0162 20.7009 14.4972Z" fill="white"/>
<path id="Vector_6" d="M24.0008 11.937C24.0008 9.82644 23.5493 4.94794 19.4161 4.94794C17.228 4.94794 15.4219 6.7125 15.4219 8.92686C15.4219 9.96484 15.8387 11.0028 16.6028 11.7294C16.9501 12.11 17.4016 12.3868 17.8531 12.5944C18.4783 12.8366 19.1035 13.1134 19.694 13.4248C22.2294 14.8433 22.7157 16.4003 22.6462 17.4729C23.5493 15.7429 24.0008 13.8746 24.0008 11.937Z" fill="white"/>
<path id="Vector_7" d="M9.4117 20.6211C8.05713 21.2785 6.52891 20.4827 6.25105 20.3443C6.11212 20.2751 5.97319 20.2405 5.79953 20.2405C5.31327 20.2405 4.89648 20.6557 4.89648 21.1401C4.89648 21.4861 5.07015 21.7975 5.38274 21.9359C5.97319 22.2473 6.70257 22.3165 7.36249 22.1435C8.19606 21.8667 8.92544 21.3477 9.4117 20.6211Z" fill="white"/>
<path id="Vector_8" d="M17.8521 16.5387C17.5047 16.1927 17.0532 15.8813 16.6017 15.6737C15.5945 15.2585 14.483 15.2585 13.5105 15.6737C13.0243 15.8813 12.6075 16.1581 12.2601 16.5387C11.8781 16.8847 11.6002 17.2999 11.4266 17.7843C11.1834 18.407 10.9056 19.0298 10.593 19.618C9.72468 21.175 8.68271 22.1438 7.5018 22.4552C7.18921 22.5244 6.84189 22.5936 6.5293 22.559C8.16172 23.4239 10.072 23.8737 11.9823 23.8737C14.101 23.8737 18.9982 23.4239 18.9982 19.3066C19.033 18.2686 18.6162 17.2653 17.8521 16.5387Z" fill="white"/>
</g>
</svg>
