<svg width="164" height="19" viewBox="0 0 164 19" fill="none" xmlns="http://www.w3.org/2000/svg">
<g clip-path="url(#clip0_221_429)">
<path d="M151.485 6.7116C151.649 6.76552 151.704 6.76552 151.759 6.76552H160.599C160.819 6.76552 161.039 6.60375 161.149 6.44197C161.643 5.8488 162.082 5.2017 162.576 4.60852C163.125 3.85357 163.29 2.99077 162.796 2.12797C162.357 1.3191 161.643 0.887695 160.654 0.887695C155.493 0.887695 150.386 0.887695 145.225 0.887695C142.754 0.887695 140.667 1.85835 139.13 3.79965C136.385 7.30477 133.694 10.8099 131.003 14.369C130.454 15.1239 130.345 15.9328 130.784 16.7956C131.223 17.6584 131.937 18.0359 132.925 18.0359H148.465C150.935 18.0359 152.912 17.0113 154.505 15.1778C154.889 14.7464 155.273 14.315 155.548 13.8836C156.207 12.7512 157.085 12.158 158.403 12.4816C158.733 12.5355 158.952 12.3737 159.172 12.1041C159.886 11.1874 160.599 10.2706 161.313 9.3C161.368 9.19215 161.478 9.0843 161.533 8.92252C157.689 8.92252 153.955 8.92252 150.167 8.92252C150.002 8.92252 149.727 9.0843 149.618 9.24607C148.519 10.7021 147.421 12.1041 146.323 13.5601C145.829 14.2611 145.17 14.5847 144.291 14.5847C143.523 14.5847 142.699 14.6386 141.93 14.5847C141.656 14.5847 141.326 14.4229 141.217 14.2072C141.107 14.0454 141.217 13.614 141.326 13.4522C143.413 10.756 145.445 8.0058 147.531 5.30955C147.915 4.7703 148.519 4.50067 149.178 4.50067C150.057 4.50067 150.935 4.44675 151.814 4.50067C152.034 4.50067 152.418 4.66245 152.473 4.82422C152.583 5.03992 152.473 5.36347 152.363 5.57917C152.089 6.01057 151.814 6.33412 151.485 6.7116ZM135.726 0.94162H135.122C133.419 0.94162 131.717 0.94162 130.015 0.94162C129.631 0.94162 129.411 1.04947 129.137 1.37302C127.16 3.96142 125.183 6.54982 123.206 9.13822C123.097 9.3 122.932 9.46177 122.767 9.67747C122.712 9.46177 122.657 9.35392 122.602 9.24607C121.998 6.65767 121.339 4.06927 120.79 1.48087C120.681 1.1034 120.571 0.94162 120.131 0.94162C118.045 0.94162 115.903 0.94162 113.817 0.94162C113.378 0.94162 113.103 1.04947 112.829 1.42695C108.71 6.81945 104.592 12.158 100.474 17.5505C100.364 17.7123 100.254 17.8741 100.09 18.0359C100.309 18.0359 100.474 18.0898 100.584 18.0898H105.8C106.13 18.0898 106.349 17.9819 106.569 17.7123C108.546 15.1239 110.467 12.5894 112.444 10.001C112.554 9.83925 112.719 9.67747 112.883 9.46177C112.938 9.7314 113.048 9.9471 113.048 10.1089C113.652 12.5894 114.201 15.07 114.805 17.5505C114.915 17.9819 115.025 18.0898 115.464 18.0898H121.943C122.273 18.0898 122.547 17.9819 122.767 17.7123C125.293 14.369 127.874 11.0795 130.399 7.73617C132.211 5.52525 133.914 3.31432 135.726 0.94162ZM92.018 0.995545C91.7984 0.995545 91.6886 0.995545 91.5787 0.995545C85.4838 0.995545 79.3889 0.995545 73.294 0.995545C73.0744 0.995545 72.7449 1.15732 72.5802 1.37302C68.4071 6.76552 64.2889 12.212 60.1158 17.6045C60.006 17.7662 59.9511 17.8741 59.7864 18.0898H60.5551C66.1009 18.0898 71.6467 18.0359 77.2475 18.1437C78.4555 18.1437 79.2791 17.928 79.8831 16.8495C80.3224 16.0946 80.9813 15.3935 81.5853 14.5847H72.0311C72.1958 14.369 72.2507 14.2072 72.3605 14.0993C72.9646 13.2905 73.6235 12.4277 74.2275 11.6188C74.4471 11.2952 74.7216 11.1874 75.106 11.1874H83.6718C84.0562 11.1874 84.2758 11.0795 84.4955 10.8099C85.2093 9.89317 85.9231 8.97645 86.6369 8.0058C86.6918 7.89795 86.7467 7.7901 86.8565 7.5744H77.3024C78.0162 6.65767 78.6751 5.79487 79.2791 4.986C79.5536 4.60852 79.8282 4.44675 80.3224 4.44675H88.8333C89.0529 4.44675 89.3275 4.39282 89.4373 4.23105C90.3158 3.20647 91.1395 2.12797 92.018 0.995545ZM84.4406 18.0898H85.0446H93.3358C93.7751 18.0898 93.9947 17.928 94.2693 17.6045C98.3875 12.212 102.506 6.87337 106.624 1.48087C106.734 1.3191 106.843 1.15732 107.008 0.94162C106.789 0.94162 106.624 0.94162 106.459 0.94162C103.659 0.94162 100.858 0.94162 98.058 0.94162C97.6736 0.94162 97.454 1.1034 97.2344 1.37302C93.1162 6.76552 88.9431 12.158 84.8249 17.5505C84.7151 17.7123 84.6053 17.8741 84.4406 18.0898ZM28.8726 9.9471C29.806 11.1874 29.806 11.7806 28.8726 12.9669C28.3235 13.6679 27.8293 14.369 27.2802 15.0161C25.6878 17.0113 23.6013 18.0898 20.9656 18.0898C14.4864 18.1976 7.89728 18.0898 1.3631 18.0898C1.25328 18.0898 1.14346 18.0898 0.923828 18.0359C1.08856 17.8202 1.19837 17.6584 1.30819 17.4966C5.42637 12.1041 9.54455 6.76552 13.6627 1.37302C13.9373 1.1034 14.2118 0.94162 14.6511 0.94162H33.1555C34.1987 0.94162 35.0224 1.26517 35.5166 2.1819C36.0107 3.09862 35.7911 4.01535 35.1322 4.82422C34.5282 5.6331 33.9242 6.44197 33.2653 7.19692C32.2769 8.4372 30.9591 9.3 29.4216 9.7314C29.2569 9.78532 29.0922 9.89318 28.8726 9.9471ZM13.1136 14.5307C14.6511 14.5307 16.0787 14.5847 17.4515 14.4768C17.8907 14.4229 18.4398 14.0454 18.7693 13.6679C19.2086 13.2905 19.4831 12.8051 19.8126 12.3198C19.9773 12.1041 20.0871 11.7266 19.9773 11.5649C19.8675 11.4031 19.538 11.2413 19.2635 11.1874C18.2751 11.1335 17.2867 11.1874 16.2435 11.1335C15.7493 11.1335 15.4747 11.2952 15.2002 11.6727C14.7609 12.2659 14.3216 12.8591 13.8824 13.4522C13.7176 13.7758 13.4431 14.0993 13.1136 14.5307ZM18.4398 7.62832H21.1853C23.6013 7.62832 23.6013 7.62832 24.974 5.74095C24.974 5.74095 25.0289 5.68702 25.0289 5.6331C25.0838 5.36347 25.2486 5.03992 25.1387 4.87815C25.0289 4.71637 24.6995 4.50067 24.4249 4.50067C23.3267 4.44675 22.2286 4.50067 21.1853 4.50067C21.0206 4.50067 20.8558 4.5546 20.746 4.66245C19.9773 5.57917 19.2635 6.54982 18.4398 7.62832ZM42.9842 18.1976C40.4035 18.1976 37.658 18.0898 35.0773 18.0898C34.034 18.0898 33.2104 17.7662 32.7162 16.8495C32.222 15.8789 32.4416 15.0161 33.1006 14.2072C35.6813 10.9178 38.2071 7.5744 40.7329 4.23105C42.4351 2.07405 44.6864 0.94162 47.4867 0.94162H62.422C63.4653 0.94162 64.2889 1.26517 64.7282 2.1819C65.1675 3.09862 65.0027 3.96142 64.3438 4.7703C61.7631 8.11365 59.2373 11.457 56.6566 14.8004C55.0093 16.9034 52.8129 18.0359 50.1224 18.0359C47.6515 18.0898 45.4002 18.1976 42.9842 18.1976ZM45.0707 14.5847H46.2787C46.9925 14.5847 47.5966 14.315 48.0907 13.7219C50.1773 11.0256 52.2089 8.32935 54.2955 5.6331C54.4602 5.4174 54.5151 5.03992 54.4602 4.87815C54.3504 4.66245 54.0209 4.50067 53.7464 4.50067C52.8678 4.44675 52.0442 4.50067 51.1656 4.50067C50.5067 4.50067 49.9576 4.7703 49.5733 5.25562C47.4318 8.0058 45.3453 10.756 43.2587 13.5062C43.1489 13.6679 43.094 14.0454 43.1489 14.2072C43.2038 14.369 43.5882 14.5307 43.8078 14.5307C44.2471 14.5847 44.6864 14.5847 45.0707 14.5847Z" fill="#0C2340"/>
</g>
<defs>
<clipPath id="clip0_221_429">
<rect width="162.092" height="17.256" fill="white" transform="translate(0.978516 0.941406)"/>
</clipPath>
</defs>
</svg>
