<svg width="306" height="45" viewBox="0 0 306 45" fill="none" xmlns="http://www.w3.org/2000/svg">
<path d="M22.4975 44.9951C34.9226 44.9951 44.9951 34.9226 44.9951 22.4975C44.9951 10.0725 34.9226 0 22.4975 0C10.0725 0 0 10.0725 0 22.4975C0 34.9226 10.0725 44.9951 22.4975 44.9951Z" fill="#0C2340"/>
<path d="M8.69833 29.1711H13.3767C12.5855 30.2818 12.1678 30.9698 12.1678 30.9698H7.3125C7.77936 30.3506 8.2413 29.751 8.69833 29.1711Z" fill="#F4F4F4"/>
<path d="M33.3147 29.1711H36.8677C36.6417 30.2769 36.4549 30.9698 36.4549 30.9698H32.8184C32.9953 30.3506 33.1673 29.7559 33.3147 29.1711Z" fill="#F4F4F4"/>
<path d="M22.1445 13.9123C19.8791 11.9613 21.0929 10.2069 21.0929 10.2069L18.8176 8.04956C15.8002 11.2438 15.466 17.4555 15.4316 19.2983C17.9133 16.8609 20.2034 15.131 22.1445 13.9123Z" fill="#F4F4F4"/>
<path d="M34.5175 13.2931C34.1538 13.3815 33.7853 13.4798 33.4216 13.5879C24.4236 16.2269 17.7107 23.5098 14.4279 27.7607H9.81836C23.3768 11.1013 31.6672 11.8237 31.6672 11.8237C31.6672 11.8237 32.7189 12.1579 34.5175 13.2931Z" fill="#F4F4F4"/>
<path d="M35.4175 14.0303C34.872 14.0794 34.3216 14.2662 33.8744 14.4627C34.5477 16.0844 35.4617 20.0159 33.6582 27.7608H37.1277C37.8206 23.736 38.4005 17.028 35.4175 14.0303Z" fill="#F4F4F4"/>
<path d="M75.464 21.1314C78.0489 20.9446 79.3463 19.1067 79.3463 16.9444C79.3463 13.8926 76.7073 12.1088 72.5302 12.1088H59.5762L60.5639 15.5094V31.0091H73.5229C77.7 31.0091 80.339 29.1711 80.339 25.8245C80.339 22.8268 78.2013 21.2886 75.464 21.1265V21.1314ZM71.8815 15.5144C74.0438 15.5144 75.3903 15.9173 75.3903 17.6472C75.3903 19.377 74.0487 19.7799 71.8815 19.7799H64.4954V15.5144H71.8815ZM72.7022 27.6133H64.4954V23.0774H72.7022C74.9431 23.0774 76.2601 23.4263 76.2601 25.3478C76.2601 27.2693 74.9431 27.6133 72.7022 27.6133Z" fill="#0C2340"/>
<path d="M100.566 21.7801C100.566 25.5592 98.527 27.8296 94.7725 27.8296C91.018 27.8296 88.9786 25.5641 88.9786 21.7801V12.1138H84.998V22.1045C84.998 27.7756 88.4577 31.6087 94.7725 31.6087C101.087 31.6087 104.547 27.7756 104.547 22.1045V12.1138H100.566V21.7801Z" fill="#0C2340"/>
<path d="M119.422 19.377C115.962 19.0821 113.475 18.9199 113.475 17.2982C113.475 15.5684 116.36 15.1114 118.724 15.1359C121.559 15.1654 123.923 15.8092 125.84 17.4063L128.026 14.4086C125.815 12.5461 122.527 11.519 118.724 11.519C113.352 11.519 109.47 13.6813 109.47 17.6226C109.47 21.5638 114.094 22.8612 119.073 23.3182C123.078 23.6966 124.867 24.1291 124.867 25.6918C124.867 27.2545 123.078 27.9868 119.544 27.9868C116.011 27.9868 113.225 26.9892 111.087 24.8564L108.797 27.8C111.46 30.2572 115.038 31.6086 119.441 31.6086C125.609 31.6086 128.867 29.0188 128.867 25.2888C128.867 21.1314 124.96 19.8635 119.417 19.377H119.422Z" fill="#0C2340"/>
<path d="M137.58 12.1136H133.6V31.0139H137.58V12.1136Z" fill="#0C2340"/>
<path d="M159.719 25.0726L147.979 12.1136H143.748V31.0139H147.606V17.3523L160.093 31.0139H163.572V12.1136H159.719V25.0726Z" fill="#0C2340"/>
<path d="M173.7 22.7088H184.109V19.0919H173.7V15.8387H187.431V12.1136H169.744V31.0139H187.681V27.397H173.7V22.7088Z" fill="#0C2340"/>
<path d="M201.632 19.377C198.173 19.0821 195.686 18.9199 195.686 17.2982C195.686 15.5684 198.571 15.1114 200.935 15.1359C203.77 15.1654 206.134 15.8092 208.051 17.4063L210.237 14.4086C208.021 12.5461 204.738 11.519 200.935 11.519C195.563 11.519 191.681 13.6813 191.681 17.6226C191.681 21.5638 196.305 22.8612 201.284 23.3182C205.289 23.6966 207.077 24.1291 207.077 25.6918C207.077 27.2545 205.289 27.9868 201.755 27.9868C198.222 27.9868 195.436 26.9892 193.298 24.8564L191.008 27.8C193.671 30.2572 197.249 31.6086 201.652 31.6086C207.82 31.6086 211.078 29.0188 211.078 25.2888C211.078 21.1314 207.171 19.8635 201.628 19.377H201.632Z" fill="#0C2340"/>
<path d="M224.843 19.377C221.384 19.0821 218.897 18.9199 218.897 17.2982C218.897 15.5684 221.782 15.1114 224.146 15.1359C226.981 15.1654 229.345 15.8092 231.261 17.4063L233.448 14.4086C231.232 12.5461 227.949 11.519 224.146 11.519C218.774 11.519 214.892 13.6813 214.892 17.6226C214.892 21.5638 219.516 22.8612 224.494 23.3182C228.5 23.6966 230.288 24.1291 230.288 25.6918C230.288 27.2545 228.5 27.9868 224.966 27.9868C221.433 27.9868 218.647 26.9892 216.509 24.8564L214.219 27.8C216.882 30.2572 220.46 31.6086 224.863 31.6086C231.03 31.6086 234.289 29.0188 234.289 25.2888C234.289 21.1314 230.382 19.8635 224.838 19.377H224.843Z" fill="#0C2340"/>
<path d="M255.655 22.5613C255.655 25.8293 254.338 27.8245 250.977 27.8245C248.839 27.8245 247.571 27.1217 246.549 25.6622L243.738 28.2275C245.257 30.3357 247.542 31.6036 250.977 31.6036C256.85 31.6036 259.631 27.8785 259.631 22.8807V12.1086H255.65V22.5564L255.655 22.5613Z" fill="#0C2340"/>
<path d="M269.44 22.7088H279.849V19.0919H269.44V15.8387H283.171V12.1136H265.484V31.0139H283.421V27.397H269.44V22.7088Z" fill="#0C2340"/>
<path d="M286.43 12.1136V15.8387H293.491V31.0139H297.472V15.8387H304.524L305.586 12.1136H286.43Z" fill="#0C2340"/>
</svg>
