<svg width="172" height="25" viewBox="0 0 172 25" fill="none" xmlns="http://www.w3.org/2000/svg">
<g id="Group">
<path id="Vector" d="M127.984 7.375C125.248 7.375 123.375 8.61813 123.375 8.61813C121.479 9.86125 121.479 11.6439 121.479 11.6439C121.479 12.5352 122.055 13.1215 122.055 13.1215C122.631 13.7079 123.495 13.7079 123.495 13.7079C124.288 13.7079 124.864 13.1684 124.864 13.1684C125.44 12.629 125.44 11.8784 125.44 11.8784C125.44 10.9871 124.672 10.5649 124.672 10.5649L124.144 10.2131L124.048 9.88471C124.048 9.65016 124.288 9.36869 124.288 9.36869C124.528 9.04032 124.936 8.82922 124.936 8.82922C126.136 8.07866 127.768 8.07866 127.768 8.07866C129.784 8.07866 130.577 8.99341 130.577 8.99341C131.345 9.93162 131.345 12.371 131.345 12.371L131.321 14.7399L127.864 15.3967C124.36 16.0534 122.535 17.4842 122.535 17.4842C120.711 18.8681 120.711 20.8852 120.711 20.8852C120.711 22.7147 121.983 23.8171 121.983 23.8171C123.255 24.8961 125.392 24.8961 125.392 24.8961C127.456 24.8961 128.968 23.8875 128.968 23.8875C130.481 22.9024 131.321 20.979 131.321 20.979C131.417 23.1369 132.137 24.0282 132.137 24.0282C132.881 24.8961 134.609 24.8961 134.609 24.8961C136.458 24.8961 137.346 23.7702 137.346 23.7702C138.21 22.6209 138.21 20.205 138.21 20.205V19.8766H137.49C137.466 21.9172 137.01 22.8555 137.01 22.8555C136.554 23.7937 135.617 23.7937 135.617 23.7937C135.137 23.7937 134.945 23.3949 134.945 23.3949C134.753 22.9962 134.753 22.0111 134.753 22.0111V13.3795C134.753 11.5969 134.321 10.4945 134.321 10.4945C133.889 9.39215 132.905 8.71195 132.905 8.71195C132.017 8.10211 130.697 7.72683 130.697 7.72683C129.376 7.375 127.984 7.375 127.984 7.375ZM131.321 15.3732V16.3584C131.321 18.6804 131.129 19.6655 131.129 19.6655C130.913 20.6741 130.193 21.7296 130.193 21.7296C129.592 22.6678 128.608 23.2542 128.608 23.2542C127.624 23.864 126.712 23.864 126.712 23.864C125.704 23.864 125.128 23.0196 125.128 23.0196C124.552 22.1753 124.552 20.6741 124.552 20.6741C124.552 18.4928 125.872 17.2497 125.872 17.2497C126.664 16.5225 127.912 16.1003 127.912 16.1003C129.088 15.7016 131.321 15.3732 131.321 15.3732Z" fill="#0C2340"/>
<path id="Vector_2" d="M153.527 7.93746C153.527 7.93746 154.656 8.50038 155.208 9.46205L155.712 10.6817L156.048 12.605C156.048 12.605 156.816 10.025 158.472 8.71148C158.472 8.71148 160.129 7.37453 162.601 7.37453C162.601 7.37453 165.602 7.37453 166.97 9.03985C166.97 9.03985 167.57 9.81387 167.738 10.5879C167.738 10.5879 167.906 11.3385 167.906 13.2383V21.1662C167.906 21.1662 167.906 22.7143 168.53 23.2068C168.53 23.2068 169.154 23.6994 171.411 23.8636V24.4265H161.041V23.8636C161.041 23.8636 163.273 23.6994 163.897 23.2068C163.897 23.2068 164.521 22.7143 164.521 21.1662V13.168C164.521 13.168 164.521 10.2361 164.065 9.39168C164.065 9.39168 163.609 8.57075 161.977 8.57075C161.977 8.57075 160.129 8.57075 158.76 9.64969C158.76 9.64969 157.368 10.7052 156.816 12.605C156.816 12.605 156.432 13.8716 156.288 15.2086C156.288 15.2086 156.144 16.5221 156.144 18.891V21.1193C156.144 21.1193 156.144 22.6908 156.792 23.2068C156.792 23.2068 157.416 23.6994 159.649 23.8636V24.4265H149.279V23.8636C149.279 23.8636 151.511 23.6994 152.135 23.2068C152.135 23.2068 152.759 22.7143 152.759 21.1662V11.8076C152.759 11.8076 152.759 10.0953 152.159 9.34477C152.159 9.34477 151.535 8.57075 150.191 8.57075C150.191 8.57075 148.583 8.57075 147.286 9.55587C147.286 9.55587 145.942 10.5644 145.27 12.3001C145.27 12.3001 144.718 13.7074 144.526 15.0913C144.526 15.0913 144.334 16.4986 144.334 19.1491V21.1193C144.334 21.1193 144.334 22.6908 144.958 23.2068C144.958 23.2068 145.606 23.6994 147.814 23.8636V24.4265H137.445V23.8636C137.445 23.8636 139.677 23.6994 140.325 23.2068C140.325 23.2068 140.949 22.7143 140.949 21.1662V11.1274C140.949 11.1274 140.949 9.79042 140.781 9.34477C140.781 9.34477 140.613 8.92257 139.989 8.71148L137.445 8.40656V7.79672L144.334 7.37453V12.605C144.334 12.605 145.222 10.0953 146.974 8.73493C146.974 8.73493 148.679 7.37453 150.959 7.37453C150.959 7.37453 152.351 7.37453 153.527 7.93746ZM50.3338 0.244141V21.1193C50.3338 21.1193 50.3338 22.7143 50.9579 23.2068C50.9579 23.2068 51.534 23.6525 53.5023 23.8401C53.5023 23.8401 55.4467 23.6525 56.0468 23.2068C56.0468 23.2068 56.6709 22.7143 56.6709 21.1662V8.57075H53.1663V7.86709H56.6709C56.6709 7.86709 56.8389 5.68575 57.367 4.32535C57.367 4.32535 57.9191 2.96495 59.0713 1.93292C59.0713 1.93292 60.8476 0.244141 63.344 0.244141C63.344 0.244141 65.1683 0.244141 66.4166 1.13544C66.4166 1.13544 67.6408 2.02674 67.6408 3.34023C67.6408 3.34023 67.6408 4.16116 67.1367 4.67718C67.1367 4.67718 66.6566 5.19319 65.8405 5.19319C65.8405 5.19319 65.0003 5.19319 64.5202 4.72409C64.5202 4.72409 64.0401 4.23153 64.0401 3.4106C64.0401 3.4106 64.0401 2.89458 64.4962 2.16747L64.6403 1.81564C64.6403 1.81564 64.6403 1.46381 64.1842 1.22926C64.1842 1.22926 63.7281 0.971253 63.104 0.971253C63.104 0.971253 61.3277 0.971253 60.6796 2.19092C60.6796 2.19092 60.0555 3.38714 60.0555 6.69433V7.86709H64.8083V8.57075H60.0795V21.1662C60.0795 21.1662 60.0555 22.7143 60.7036 23.2068C60.7036 23.2068 61.3277 23.6994 63.5361 23.8636V24.4265L41.4763 24.5672L38.9079 24.7314L38.2357 24.8018V19.712C38.2357 19.712 37.7076 20.9317 37.2756 21.5884L36.2434 22.8784C36.2434 22.8784 35.3312 23.8401 34.035 24.3796C34.035 24.3796 32.7868 24.8956 31.3946 24.8956C31.3946 24.8956 30.1944 24.8956 29.1862 24.4734C29.1862 24.4734 28.154 24.0277 27.5779 23.2537C27.5779 23.2537 26.9298 22.4328 26.6898 21.4008C26.6898 21.4008 26.4497 20.3687 26.4497 18.5392V11.1274C26.4497 11.1274 26.4497 9.76696 26.2817 9.34477C26.2817 9.34477 26.0897 8.92257 25.4415 8.71148L22.7051 8.40656V7.79672L29.8343 7.37453V19.3602C29.8343 19.3602 29.8343 21.6588 30.4584 22.7612C30.4584 22.7612 31.1065 23.8636 32.4267 23.8636C32.4267 23.8636 33.963 23.8636 35.4033 22.597C35.4033 22.597 36.8435 21.3069 37.5636 19.3132C37.5636 19.3132 38.2357 17.5072 38.2357 14.5518V11.1274C38.2357 11.1274 38.2357 9.74351 38.0917 9.34477C38.0917 9.34477 37.9237 8.92257 37.2756 8.71148L34.6351 8.40656V7.79672L41.6683 7.37453V21.1193C41.6683 21.1193 41.6683 22.7143 42.2924 23.2068C42.2924 23.2068 42.7965 23.6055 44.3088 23.7932C44.3088 23.7932 45.797 23.6055 46.3011 23.2068C46.3011 23.2068 46.9492 22.7143 46.9492 21.1662V4.0908C46.9492 4.0908 46.9492 2.70694 46.7812 2.28475C46.7812 2.28475 46.6132 1.88601 45.9651 1.67491L43.4446 1.32308V0.760156H43.6607L47.1653 0.549059L49.9977 0.314506L50.3338 0.244141Z" fill="#0C2340"/>
<path id="Vector_3" d="M76.9563 7.61004V13.8491H76.3802C76.3802 13.8491 75.9481 11.1518 74.4599 9.60374C74.4599 9.60374 72.9956 8.07915 70.8112 8.07915C70.8112 8.07915 69.347 8.07915 68.3388 8.82971C68.3388 8.82971 67.3307 9.58028 67.3307 10.6827C67.3307 10.6827 67.3307 11.7851 68.2668 12.4184C68.2668 12.4184 69.227 13.0517 72.3715 14.0602L74.8679 14.9046C74.8679 14.9046 75.5401 15.1626 76.2122 15.5848C76.2122 15.5848 77.1243 16.1477 77.6764 17.1563C77.6764 17.1563 78.2045 18.1649 78.2045 19.3142C78.2045 19.3142 78.2045 21.6597 76.2602 23.2781C76.2602 23.2781 74.3158 24.8965 71.4834 24.8965C71.4834 24.8965 69.0829 24.8965 67.1386 23.7003L65.9384 22.9029L65.6984 22.809C65.6984 22.809 65.3863 22.809 65.1703 23.372L65.0263 23.8645L64.7382 24.8027H64.1621V17.2267H64.7382C64.7382 17.2267 66.7305 24.2163 71.4834 24.2163C71.4834 24.2163 73.1636 24.2163 74.3398 23.2547C74.3398 23.2547 75.5401 22.2696 75.5401 20.8857C75.5401 20.8857 75.5401 19.5253 74.6759 18.8686C74.6759 18.8686 73.8118 18.2118 70.5952 17.1798C70.5952 17.1798 68.0028 16.4058 66.8266 15.7256C66.8266 15.7256 64.6662 14.5059 64.6662 12.3011C64.6662 12.3011 64.6662 10.237 66.4425 8.80626C66.4425 8.80626 68.2188 7.37549 70.8112 7.37549C70.8112 7.37549 72.8756 7.37549 74.7719 8.43097C74.7719 8.43097 75.444 8.82971 75.6121 8.82971C75.6121 8.82971 75.8281 8.82971 75.9961 8.5717L76.3562 7.61004H76.9563ZM93.9512 7.61004L97.1677 7.37549V11.1049C97.1677 11.1049 97.9119 9.205 99.1121 8.29024C99.1121 8.29024 100.312 7.37549 102.089 7.37549C102.089 7.37549 103.649 7.37549 104.657 8.17297C104.657 8.17297 105.641 8.97044 105.641 10.237C105.641 10.237 105.641 11.1752 105.041 11.8085C105.041 11.8085 104.441 12.4418 103.577 12.4418C103.577 12.4418 102.689 12.4418 102.089 11.8789C102.089 11.8789 101.488 11.2925 101.488 10.4716C101.488 10.4716 101.488 9.93211 101.681 9.60374L102.377 8.85317L102.521 8.64207C102.521 8.64207 102.521 8.47788 102.233 8.38406L101.536 8.26679C101.536 8.26679 100.504 8.26679 99.5442 9.04081C99.5442 9.04081 98.608 9.79138 98.0799 11.0345C98.0799 11.0345 97.5518 12.2542 97.3598 13.5442C97.3598 13.5442 97.1677 14.8343 97.1677 16.9452V21.1203C97.1677 21.1203 97.1677 22.6918 97.8399 23.2078C97.8399 23.2078 98.512 23.7003 100.864 23.8645V24.4274H90.2546V23.8645C90.2546 23.8645 92.4869 23.7003 93.1111 23.2078C93.1111 23.2078 93.7352 22.7152 93.7352 21.1672V11.1283C93.7352 11.1283 93.7352 9.74447 93.5671 9.34573C93.5671 9.34573 93.3991 8.92353 92.727 8.71244L89.9905 8.40752V7.79768L93.9512 7.61004Z" fill="#0C2340"/>
<path id="Vector_4" d="M83.2248 4.04389C83.2248 4.04389 83.5849 2.73039 83.8009 0.244141H84.401V7.82018H89.7539V8.54729H84.401V19.712C84.401 19.712 84.401 22.1513 84.8571 22.9723C84.8571 22.9723 85.2892 23.7697 86.6574 23.7697C86.6574 23.7697 88.3377 23.7697 89.0818 22.5501C89.0818 22.5501 89.8019 21.3304 89.922 18.2578L89.97 17.8121H90.6901V18.2108C90.6901 18.2108 90.6901 19.8293 90.5221 20.8378C90.5221 20.8378 90.354 21.776 89.922 22.6204C89.922 22.6204 89.3459 23.7228 88.2417 24.3092C88.2417 24.3092 87.1375 24.8956 85.6732 24.8956C85.6732 24.8956 84.209 24.8956 83.0808 24.3092C83.0808 24.3092 81.9286 23.7228 81.4725 22.7612C81.4725 22.7612 81.0645 21.8699 81.0165 20.6736V8.57075H77.5119V7.93746C77.5119 7.93746 80.8004 7.74981 82.1446 6.15486C82.1446 6.15486 82.8408 5.35738 83.2248 4.04389ZM6.05174 3.8797C6.05174 3.8797 4.22743 6.8116 4.22743 12.4878C4.22743 12.4878 4.22743 18.4219 5.95572 21.3069C5.95572 21.3069 7.66001 24.2154 11.1646 24.2154C11.1646 24.2154 12.5328 24.2154 13.757 23.7697C13.757 23.7697 14.9813 23.3241 15.7974 22.5266C15.7974 22.5266 16.7095 21.6353 17.0936 20.4391C17.0936 20.4391 17.5017 19.2429 17.5017 17.4368V15.9357C17.5017 15.9357 17.5017 14.0827 16.9256 13.6136C16.9256 13.6136 16.3255 13.1211 13.733 12.9569V12.347H25.015V12.91C25.015 12.91 22.3025 13.1211 21.6784 13.6136C21.6784 13.6136 21.0303 14.0827 21.0303 15.9357V24.6845H20.4542C20.4542 24.6845 19.9741 22.7377 19.614 22.0106C19.614 22.0106 19.206 21.2366 18.6779 21.2366C18.6779 21.2366 18.2938 21.2366 17.6217 21.8699C17.6217 21.8699 15.8934 23.5821 14.4772 24.2388C14.4772 24.2388 13.0609 24.8956 11.1646 24.8956C11.1646 24.8956 6.93989 24.8956 3.57932 21.1427C3.57932 21.1427 0.21875 17.3899 0.21875 12.6754C0.21875 12.6754 0.21875 7.86709 3.65133 4.06734C3.65133 4.06734 7.08391 0.244141 11.4287 0.244141C11.4287 0.244141 14.0451 0.244141 16.3015 1.81564L17.0696 2.35511C17.0696 2.35511 17.7177 2.77731 18.1018 2.77731C18.1018 2.77731 18.8459 2.77731 19.518 0.502148H20.1181L20.1901 9.74351H19.614L18.6779 6.97579L17.5497 4.771C17.5497 4.771 16.3975 2.77731 14.9332 1.86255C14.9332 1.86255 13.469 0.971253 11.4046 0.971253C11.4046 0.971253 7.85205 0.971253 6.05174 3.8797ZM113.062 7.44476C109.677 7.44476 107.133 10.0717 107.133 10.0717C104.589 12.6987 104.589 16.217 104.589 16.217C104.589 19.876 107.133 22.3857 107.133 22.3857C109.677 24.8954 113.35 24.8954 113.35 24.8954C116.279 24.8954 118.151 23.277 118.151 23.277C119.999 21.6586 120.383 18.7736 120.383 18.7736H119.663C119.231 21.4475 117.647 22.8314 117.647 22.8314C116.062 24.2152 113.446 24.2152 113.446 24.2152C110.782 24.2152 109.533 22.5265 109.533 22.5265C108.261 20.8377 108.261 17.3194 108.261 17.3194L108.309 15.5603L120.239 15.5837L120.287 14.8332C120.287 11.5729 118.271 9.50882 118.271 9.50882C116.231 7.44476 113.062 7.44476 113.062 7.44476ZM112.99 8.14841C116.783 8.14841 116.783 12.9098 116.783 12.9098C116.783 14.2233 116.375 14.5751 116.375 14.5751C116.014 14.8801 115.15 14.8801 115.15 14.8801H108.405C108.597 11.2445 109.653 9.69646 109.653 9.69646C110.71 8.14841 112.99 8.14841 112.99 8.14841Z" fill="#0C2340"/>
</g>
</svg>
