<svg width="124" height="21" viewBox="0 0 124 21" fill="none" xmlns="http://www.w3.org/2000/svg">
<path id="Vector" d="M30.043 19.8061V15.2773H23.7914V12.7725H30.043V8.22438H23.949V5.71957H30.043V1.18592H17.6974V19.8013H30.043V19.8061ZM36.7774 10.4215L30.043 19.8061H36.4671L39.9944 14.9503L43.6745 19.8061H50.2562L43.3592 10.2628L49.9409 1.18592H43.6745L40.1471 5.86861L36.7774 1.18592H30.043L36.7774 10.4215ZM66.9223 19.8061H72.8586V5.86861H73.9917C76.115 5.86861 77.0215 6.78688 76.6963 8.60899C76.3811 10.4407 75.312 11.1955 73.4991 10.8734L79.9231 19.8013H86.1748L80.2434 11.3542C82.5933 9.69072 83.283 7.57534 82.3174 5.01765C81.3617 2.46477 79.3271 1.18592 76.2234 1.18592H66.9174V19.8061H66.9223ZM111.994 19.8061V10.2628L118.891 19.8013H123.867V1.18592H117.615V9.31092L111.842 1.18592H106.393V19.8013H111.994V19.8061ZM0.701172 1.18592V5.71477H5.67194V19.8013H11.9187V5.71477H17.6974L14.4903 1.18592H0.701172ZM49.7635 1.18592V5.71477H54.7392V19.8013H61.0056V5.71477H66.9223L63.5723 1.18592H49.7635ZM94.6778 15.1042C95.9587 15.1042 97.0524 14.6619 97.9588 13.7773C98.8456 12.9407 99.3382 11.7821 99.3185 10.5753C99.3185 9.32534 98.8604 8.25803 97.9588 7.37342C97.0967 6.50803 95.9094 6.02727 94.6778 6.0465C93.3969 6.0465 92.2934 6.49361 91.3771 7.37342C90.4904 8.20996 89.9977 9.36861 90.0125 10.5753C90.0125 11.8253 90.4657 12.8975 91.3771 13.7773C92.2934 14.6571 93.392 15.1042 94.6778 15.1042ZM84.5688 10.5705C84.5688 7.859 85.5541 5.53688 87.5394 3.60419C89.5149 1.67631 91.8944 0.709961 94.6778 0.709961C97.4563 0.709961 99.8358 1.67631 101.816 3.60419C103.792 5.53688 104.782 7.859 104.782 10.5705C104.782 13.2869 103.792 15.609 101.816 17.5369C99.8358 19.4696 97.4563 20.4311 94.6778 20.4311C91.8944 20.4311 89.5149 19.4696 87.5394 17.5369C85.559 15.609 84.5688 13.2869 84.5688 10.5705Z" fill="#0C2340"/>
</svg>
